<svg width="300" height="85" viewBox="0 0 500 151" fill="none" xmlns="http://www.w3.org/2000/svg">
        <g clip-path="url(#clip0_17:526)">
        <path d="M208.699 3.48194H242.026C242.416 3.49008 242.788 3.65088 243.061 3.92986C243.334 4.20883 243.487 4.58376 243.487 4.9742V12.7775C243.492 13.0635 243.578 13.3421 243.737 13.5803C243.895 13.8184 244.119 14.006 244.381 14.1206C244.643 14.2353 244.933 14.2722 245.215 14.227C245.497 14.1818 245.761 14.0563 245.974 13.8656C254.377 6.20892 265.322 1.94374 276.69 1.89642C283.335 1.63226 289.934 3.09427 295.846 6.13995C301.757 9.18562 306.779 13.711 310.421 19.275C310.555 19.4738 310.735 19.6366 310.947 19.7492C311.158 19.8618 311.394 19.9207 311.633 19.9207C311.873 19.9207 312.109 19.8618 312.32 19.7492C312.532 19.6366 312.712 19.4738 312.846 19.275C316.46 13.6911 321.457 9.13654 327.351 6.0534C333.245 2.97026 339.836 1.4633 346.484 1.6788C351.106 1.65592 355.703 2.36954 360.101 3.79283C364.24 5.10096 368.012 7.37008 371.106 10.4147C374.394 13.7265 376.901 17.7308 378.443 22.1352C380.374 27.7312 381.289 33.6269 381.148 39.5449V104.831C381.148 105.026 381.109 105.218 381.034 105.398C380.958 105.577 380.848 105.739 380.709 105.876C380.57 106.012 380.405 106.119 380.224 106.19C380.043 106.262 379.85 106.296 379.656 106.292H346.36C346.165 106.296 345.972 106.262 345.791 106.19C345.61 106.119 345.445 106.012 345.306 105.876C345.167 105.739 345.057 105.577 344.981 105.398C344.906 105.218 344.867 105.026 344.867 104.831V55.5866C344.945 51.2911 344.581 46.9989 343.779 42.7781C343.298 39.9791 342.239 37.3111 340.67 34.9437C339.46 33.1921 337.748 31.8481 335.758 31.0887C333.76 30.4024 331.653 30.0863 329.541 30.1561C317.913 30.1561 312.1 38.6329 312.1 55.5866V104.8C312.1 105.188 311.946 105.559 311.672 105.833C311.398 106.107 311.026 106.261 310.639 106.261H277.436C277.045 106.261 276.671 106.108 276.392 105.835C276.113 105.562 275.952 105.19 275.944 104.8V55.5866C276.026 51.2538 275.693 46.923 274.949 42.6537C274.49 39.7949 273.51 37.0446 272.058 34.5396C270.919 32.6664 269.191 31.2233 267.146 30.4359C264.882 29.6762 262.506 29.3082 260.119 29.3478C257.946 29.3396 255.784 29.6753 253.715 30.3426C251.607 31.0853 249.76 32.4246 248.399 34.1976C246.66 36.5842 245.432 39.3043 244.793 42.1874C243.822 46.5643 243.384 51.0424 243.487 55.5245V104.8C243.487 105.188 243.333 105.559 243.059 105.833C242.785 106.107 242.413 106.261 242.026 106.261H208.699C208.311 106.261 207.94 106.107 207.666 105.833C207.391 105.559 207.238 105.188 207.238 104.8V4.9742C207.237 4.58376 207.39 4.20883 207.664 3.92986C207.937 3.65088 208.308 3.49008 208.699 3.48194Z" fill="#C32127"/>
        <path d="M167.631 3.48193H201.175C201.566 3.49006 201.937 3.65087 202.211 3.92984C202.484 4.20882 202.637 4.58374 202.637 4.97419V104.8C202.637 105.188 202.483 105.559 202.209 105.833C201.935 106.107 201.563 106.261 201.175 106.261H167.631C167.243 106.261 166.871 106.107 166.597 105.833C166.323 105.559 166.169 105.188 166.169 104.8V99.7637C166.173 99.4742 166.09 99.1902 165.932 98.9478C165.773 98.7054 165.546 98.5155 165.28 98.4023C165.013 98.289 164.719 98.2575 164.435 98.3117C164.15 98.3659 163.889 98.5034 163.682 98.7067C153.33 109.526 117.671 115.308 96.9038 87.235C79.9915 64.4158 85.5564 31.0887 102.593 13.7101C116.894 -0.870495 142.666 -3.73066 163.807 11.8759C164.022 12.045 164.281 12.15 164.554 12.179C164.826 12.208 165.101 12.1597 165.348 12.0398C165.594 11.9198 165.802 11.733 165.947 11.5006C166.093 11.2682 166.17 10.9997 166.169 10.7256V4.97419C166.169 4.58374 166.322 4.20882 166.595 3.92984C166.869 3.65087 167.24 3.49006 167.631 3.48193ZM120.5 54.5918C120.463 57.7908 121.076 60.9639 122.303 63.9184C123.431 66.7427 125.1 69.3195 127.215 71.5041C129.304 73.6725 131.825 75.3778 134.614 76.5094C137.569 77.7356 140.742 78.349 143.941 78.3125C147.068 78.3334 150.167 77.72 153.05 76.5094C155.84 75.3778 158.361 73.6725 160.449 71.5041C162.544 69.3544 164.239 66.8489 165.454 64.1049C166.733 61.2719 167.391 58.1976 167.382 55.0892C167.388 51.941 166.732 48.8267 165.454 45.9491C164.256 43.1678 162.56 40.6286 160.449 38.4567C158.361 36.2883 155.84 34.583 153.05 33.4515C150.167 32.2408 147.068 31.6274 143.941 31.6483C140.742 31.6118 137.569 32.2252 134.614 33.4515C131.825 34.583 129.304 36.2883 127.215 38.4567C125.145 40.571 123.48 43.0473 122.303 45.7626C121.093 48.5476 120.479 51.5552 120.5 54.5918Z" fill="#C32127"/>
        <path d="M420.226 150.532H387.179C386.797 150.523 386.433 150.366 386.166 150.093C385.898 149.82 385.749 149.453 385.749 149.07V5.03637C385.757 4.65958 385.91 4.30042 386.177 4.03393C386.443 3.76744 386.802 3.61422 387.179 3.60629H420.226C420.606 3.60629 420.969 3.75696 421.238 4.02515C421.506 4.29334 421.656 4.65709 421.656 5.03637V10.0417C421.665 10.3259 421.757 10.6014 421.92 10.8344C422.083 11.0674 422.31 11.2478 422.574 11.3534C422.838 11.459 423.127 11.4853 423.406 11.429C423.685 11.3727 423.941 11.2363 424.143 11.0365C434.309 0.40415 469.44 -5.31617 489.927 22.3528C506.591 44.8299 501.119 77.5975 484.3 94.7895C470.248 109.184 444.849 111.982 424.019 96.6238C423.806 96.4562 423.549 96.3515 423.28 96.3213C423.01 96.2911 422.737 96.3367 422.492 96.4529C422.246 96.5691 422.038 96.7513 421.891 96.9792C421.743 97.2071 421.662 97.4715 421.656 97.743V149.226C421.625 149.583 421.461 149.916 421.196 150.158C420.931 150.399 420.585 150.533 420.226 150.532ZM466.673 54.5296C466.73 48.3623 464.376 42.4166 460.113 37.9593C458.041 35.8302 455.554 34.1479 452.807 33.0162C449.85 31.8023 446.677 31.1995 443.481 31.2442C440.398 31.231 437.343 31.8335 434.496 33.0162C431.749 34.1479 429.262 35.8302 427.19 37.9593C425.14 40.0897 423.477 42.5622 422.278 45.2652C421.018 48.0484 420.371 51.0702 420.382 54.1255C420.377 57.2202 421.023 60.2813 422.278 63.1101C423.458 65.8512 425.122 68.3575 427.19 70.5092C429.262 72.6384 431.749 74.3206 434.496 75.4523C437.343 76.6351 440.398 77.2376 443.481 77.2244C446.677 77.2691 449.85 76.6663 452.807 75.4523C455.554 74.3206 458.041 72.6384 460.113 70.5092C462.133 68.4201 463.764 65.9884 464.932 63.3277C466.117 60.5477 466.71 57.5514 466.673 54.5296Z" fill="#C32127"/>
        <path d="M81.6079 36.9017C76.2635 32.5402 69.6588 30.0117 62.7681 29.6891C59.4636 29.6388 56.1827 30.2525 53.1198 31.494C50.057 32.7354 47.2746 34.5793 44.9377 36.9162C42.6008 39.2531 40.7569 42.0354 39.5155 45.0983C38.274 48.1612 37.6603 51.4421 37.7106 54.7466C37.59 58.1301 38.1739 61.5018 39.4251 64.6477C40.6764 67.7937 42.5677 70.6453 44.9792 73.0217C47.3907 75.3981 50.2697 77.2475 53.4337 78.4525C56.5976 79.6575 59.9775 80.1919 63.3588 80.0218C70.0889 79.9509 76.5679 77.4564 81.6079 72.9957V103.867C73.6257 107.769 64.8445 109.76 55.9597 109.68C25.4617 109.68 0 87.0478 0 55.9591C0 22.8496 25.2751 -0.000619541 57.5452 -0.000619541C65.9468 -0.0546391 74.2251 2.02029 81.6079 6.03059V36.9017Z" fill="#C32127"/>
        </g>
        </svg>