<svg width="20" height="19" viewBox="0 0 20 19" fill="none" xmlns="http://www.w3.org/2000/svg">
<path fill-rule="evenodd" clip-rule="evenodd" d="M14.8717 0.210263L19.0254 4.46034C19.1623 4.60032 19.2309 4.76647 19.2309 4.95817C19.2309 5.15001 19.1623 5.31589 19.0254 5.45618L14.8716 9.7063C14.7417 9.8464 14.5793 9.91645 14.3846 9.91645C14.2983 9.91645 14.208 9.89811 14.1144 9.86125C13.833 9.73572 13.6925 9.51817 13.6925 9.20801V7.08305H11.9615C9.6323 7.08305 8.05301 7.56641 7.22356 8.53299C6.36547 9.54376 6.09859 11.2889 6.42306 13.7681C6.44469 13.9379 6.37263 14.0631 6.20679 14.1444C6.14901 14.1592 6.10594 14.1664 6.07695 14.1664C5.96162 14.1664 5.86788 14.1185 5.79578 14.0225C5.72372 13.9193 5.64787 13.8047 5.56857 13.6795C5.48923 13.554 5.34685 13.3014 5.14134 12.9214C4.9358 12.5415 4.75723 12.1743 4.60583 11.8204C4.45439 11.4661 4.31557 11.0456 4.18936 10.5588C4.0632 10.0716 4 9.6216 4 9.20824C4 8.84687 4.01262 8.51105 4.03785 8.20116C4.06308 7.89135 4.11351 7.55936 4.18936 7.20516C4.26514 6.85104 4.36608 6.52642 4.49217 6.23118C4.61849 5.93602 4.78785 5.6354 5.0007 5.32923C5.21344 5.02302 5.46036 4.74996 5.74172 4.51015C6.02304 4.27031 6.36376 4.04338 6.76394 3.82947C7.16419 3.61549 7.61312 3.43647 8.11075 3.29273C8.60833 3.14872 9.18347 3.03626 9.83606 2.95516C10.4886 2.87402 11.1973 2.83344 11.9616 2.83344H13.6925V0.708282C13.6925 0.398391 13.8331 0.180724 14.1145 0.0552406C14.2081 0.0184523 14.2985 0 14.3847 0C14.5721 0 14.7345 0.070049 14.8717 0.210263ZM3 17H15C15.55 17 16 16.55 16 16V11C16 10.45 16.45 10 17 10C17.55 10 18 10.45 18 11V17C18 18.1 17.1 19 16 19H2C0.9 19 0 18.1 0 17V3C0 1.9 0.89 1 2 1H6C6.55 1 7 1.45 7 2C7 2.55 6.55 3 6 3H3C2.45 3 2 3.45 2 4V16C2 16.55 2.45 17 3 17Z" fill="#474342"/>
</svg>
